<svg xmlns="http://www.w3.org/2000/svg" width="122.769" height="23.653" viewBox="0 0 122.769 23.653">
  <path id="fossil-group-1" d="M83.322,10.131C78.9,8.713,76.977,7.463,77.307,5.405c.317-2.041,2.531-1.92,4.68-1.753a22.179,22.179,0,0,1,5.119,1.065c.023.017.1,0,.112-.076.112-.747.518-2.729.629-3.408.017-.084-.063-.126-.1-.136A26.54,26.54,0,0,0,79.97,0C74.682.1,72.224,2.226,71.923,6.673c-.177,2.6,1.621,5.465,5.357,6.7s6.4,1.935,6.015,4.238c-.342,1.951-2.643,2.172-5.136,2.028a23.111,23.111,0,0,1-5.41-1.072.133.133,0,0,0-.183.11c-.1.8-.393,2.848-.492,3.569a.2.2,0,0,0,.12.184,37.137,37.137,0,0,0,8.528.992c5.075,0,7.708-2.176,8-6.344.229-3.234-1.294-5.626-5.4-6.949Zm-22.889,0c-4.424-1.418-6.342-2.668-6.014-4.726.319-2.041,2.531-1.92,4.674-1.753a22.085,22.085,0,0,1,5.116,1.065c.036.017.089,0,.1-.076.129-.747.525-2.729.641-3.408a.129.129,0,0,0-.1-.136A26.567,26.567,0,0,0,57.082,0C51.792.1,49.336,2.226,49.025,6.673c-.174,2.6,1.626,5.467,5.354,6.7s6.4,1.934,6.022,4.235c-.34,1.952-2.639,2.172-5.136,2.029a23.173,23.173,0,0,1-5.417-1.072.128.128,0,0,0-.174.108c-.1.8-.394,2.85-.491,3.573a.189.189,0,0,0,.115.182,37.224,37.224,0,0,0,8.523.992c5.08,0,7.706-2.176,8-6.346.237-3.233-1.286-5.625-5.391-6.948ZM16.785.515H1.456a.146.146,0,0,0-.15.144V22.887a.145.145,0,0,0,.15.148H6.549a.145.145,0,0,0,.144-.148V14.568a.153.153,0,0,1,.15-.148h8.833a.143.143,0,0,0,.152-.139V10.842a.153.153,0,0,0-.152-.153H6.843a.148.148,0,0,1-.15-.15V4.4a.151.151,0,0,1,.15-.148H16.914a.143.143,0,0,0,.145-.146L16.942.659a.175.175,0,0,0-.158-.145ZM101.193.5H95.939a.139.139,0,0,0-.148.145V22.89a.137.137,0,0,0,.148.138h5.254a.137.137,0,0,0,.143-.138V.643A.141.141,0,0,0,101.193.5Zm22.731,18.736h-8.712a.148.148,0,0,1-.147-.145l0-18.411a.14.14,0,0,0-.148-.149h-5.247a.146.146,0,0,0-.15.149v22.21a.144.144,0,0,0,.15.136H123.75a.15.15,0,0,0,.156-.136l.169-3.5a.148.148,0,0,0-.151-.157ZM32.887.024c-6.9,0-10.658,4.523-10.658,11.817s3.764,11.812,10.658,11.812,10.652-4.526,10.652-11.812c0-7.4-3.662-11.817-10.652-11.817Zm0,19.9c-4.683,0-5.331-3.888-5.331-8.085S28.2,3.76,32.887,3.76s5.321,3.887,5.321,8.081S37.565,19.926,32.887,19.926Z" transform="translate(-1.306 0)"/>
</svg>
