<svg xmlns="http://www.w3.org/2000/svg" xmlns:xlink="http://www.w3.org/1999/xlink" width="209.778" height="80.065" viewBox="0 0 209.778 80.065">
  <defs>
    <clipPath id="clipPath">
      <rect id="Rectangle_60" data-name="Rectangle 60" width="209.778" height="80.065" fill="#ff5b9f"/>
    </clipPath>
  </defs>
  <g id="Group_47" data-name="Group 47" transform="translate(0 0)">
    <path id="Path_21" data-name="Path 21" d="M17.132,79.716H40.907L66.08,36.361,49.3,26.222,34.614,52.794l-8.392-38.46L0,0Z" fill="#ff5b9f"/>
    <path id="Path_22" data-name="Path 22" d="M61.079,32.593,53.037,74.2H70.169l7.692-41.606Z" transform="translate(9.547 5.867)" fill="#ff5b9f"/>
    <g id="Group_46" data-name="Group 46" transform="translate(0 0)">
      <g id="Group_45" data-name="Group 45" clipPath="url(#clipPath)">
        <path id="Path_23" data-name="Path 23" d="M82.465,31.7,74.074,74.359H91.205L96.712,50.6a6.337,6.337,0,0,1,12.359,2.8l-4.58,20.609h17.131l4.353-23.942A15.577,15.577,0,0,0,100,35.917l-1.1,1.031.7-5.244Z" transform="translate(13.333 5.707)" fill="#ff5b9f"/>
        <path id="Path_24" data-name="Path 24" d="M150.471,9.778l-18.88,10.14L119.7,77.956h16.782l1.749-7.342,5.244-5.245,6.993,12.936H171.8L157.115,54.181,180.189,35.65H157.464L143.478,48.237Z" transform="translate(21.547 1.76)" fill="#ff5b9f"/>
        <path id="Path_25" data-name="Path 25" d="M7.815,3.908A3.908,3.908,0,1,1,3.907,0,3.908,3.908,0,0,1,7.815,3.908" transform="translate(185.261 53.719) rotate(8)" fill="#ff5b9f"/>
        <path id="Path_26" data-name="Path 26" d="M5.532,20.122c.06-.058.113-.119.168-.179l.166-.175a.776.776,0,0,0,.081-.1A12.746,12.746,0,0,0,5.533,2.061L4.966,1.5,4.183.712A2.454,2.454,0,0,0,.714,4.183l1.35,1.349a7.875,7.875,0,0,1,0,11.122l-.944.975a2.434,2.434,0,0,0,1.725,4.145,2.388,2.388,0,0,0,1.713-.707Z" transform="translate(193.933 47.996) rotate(8)" fill="#ff5b9f"/>
        <path id="Path_27" data-name="Path 27" d="M4.284,32.8l.812-.812s.008,0,.009-.012l.644-.641a2.3,2.3,0,0,0,.291-.363A21.273,21.273,0,0,0,5.379,2.235c-.035-.038-.059-.081-.1-.12L3.813.649A2.237,2.237,0,0,0,.65,3.814L2.114,5.28a.2.2,0,0,1,.033.027,16.8,16.8,0,0,1,.126,23.176L1.12,29.636A2.237,2.237,0,0,0,4.284,32.8" transform="translate(200.789 42.879) rotate(8)" fill="#ff5b9f"/>
      </g>
    </g>
    <circle id="Ellipse_12" data-name="Ellipse 12" cx="10.5" cy="10.5" r="10.5" transform="translate(70 11.106)" fill="#ff5b9f"/>
  </g>
</svg>
