<svg xmlns="http://www.w3.org/2000/svg" width="60.503" height="43.571" viewBox="0 0 60.503 43.571">
  <path id="new-gap-logo" d="M4.683,0C3.566,0,.015.352.015,4.9V37.234c0,.039-.19,3.194,1.519,5.026A4.328,4.328,0,0,0,4.84,43.566a5.026,5.026,0,0,0,3.283-1.318.838.838,0,0,1,.743,0,1.117,1.117,0,0,1,.4.96h.614V22.933H11.4v-.558H4.946v.558H6.839V40.355a3.094,3.094,0,0,1-.558,2.139,1.832,1.832,0,0,1-1.429.558,1.614,1.614,0,0,1-1.2-.491c-.6-.62-.888-1.787-.843-3.468V3.613c0-.128.14-3.071,1.765-3.071S8.14,4.64,8.8,12.475v1.234h.558V.363H8.8V1.452l-.05.034a.787.787,0,0,1-.436.145A1.29,1.29,0,0,1,7.76,1.29,5.093,5.093,0,0,0,4.683,0ZM48.8,43.242h7.025v-.558H53.392V25.792h3.015a3.858,3.858,0,0,0,4.1-3.736V4.9c0-4.132-5.288-4.21-5.338-4.21H48.64v.558h1.675V42.7H48.774v.558Zm-17.645-.056h6.472v-.558H35.9L31.252.709h-2.53C28.493,2.9,24.59,40.355,24.59,40.869a1.826,1.826,0,0,1-1.742,1.765h-.329v.558h4.523v-.558H26.8a1.675,1.675,0,0,1-1.6-1.848l1.563-15.127h4.21L32.8,42.633H31.123v.558Zm22.392-18.1h-.106V1.29h1.781c2.072,0,2.4,2.753,2.4,2.792V22.6c0,2.423-1.826,2.479-1.843,2.479H53.537Zm-22.576-.106H26.874v-.117L28.9,5.813Z" transform="translate(-0.009)"/>
</svg>
