<svg id="puma-logo" xmlns="http://www.w3.org/2000/svg" width="102.308" height="50.976" viewBox="0 0 102.308 50.976">
  <path id="Path_57" data-name="Path 57" d="M90.573,35.666c-.335.052-.656,1.284-1.3,1.926-.473.463-1.064.434-1.377,1.007-.119.214-.08.579-.216.93-.264.7-1.194.764-1.194,1.529,0,.825.776.983,1.45,1.569.526.471.578.8,1.215,1.025.544.185,1.353-.42,2.082-.2.6.179,1.171.307,1.307.922.119.566-.008,1.445-.734,1.344a7.945,7.945,0,0,0-2.608-.246c-1.572.179-3.366.692-3.542,2.444a2.012,2.012,0,0,0,2.285,1.9c.809-.159.426-1.113.867-1.577.578-.594,3.85,2.072,6.893,2.072a3.975,3.975,0,0,0,3.18-1.315c.088-.076.2-.238.333-.248a1.164,1.164,0,0,1,.428.191c2.451,1.969,4.3,5.92,13.308,5.966a6.064,6.064,0,0,1,3.887,1.686,10.66,10.66,0,0,1,2.262,4.016,21.425,21.425,0,0,0,4.965,7.03c.134.134,2.15,1.7,2.311,1.818a.969.969,0,0,1,.122.568c-.06,1.493-.277,5.836,2.96,6.032.792.04.584-.516.584-.9a4.51,4.51,0,0,1,.259-2.282c.545-1.065-1.157-1.556-1.107-3.858.035-1.717-1.406-1.424-2.138-2.732a3.527,3.527,0,0,1-.769-2.087c.164-5.216-1.11-8.644-1.746-9.485-.5-.636-.906-.888-.452-1.183,2.7-1.784,3.315-3.445,3.315-3.445,1.437-3.377,2.729-6.462,4.51-7.82a13.367,13.367,0,0,1,1.844-1.237,12.112,12.112,0,0,0,3.02-1.728c.764-.745,1.368-2.3.635-3.239-.911-1.162-2.486-.24-3.181.172-4.967,2.948-5.7,8.148-7.419,11.135-1.372,2.386-3.6,4.138-5.6,4.282a9.96,9.96,0,0,1-4.714-.9,23.723,23.723,0,0,1-6.546-4.314c-1.049-.809-9.194-8.8-15.793-9.131,0,0-.819-1.64-1.025-1.667-.483-.061-.977.98-1.331,1.1-.333.111-.893-1.128-1.229-1.073M61.523,83.385a1.175,1.175,0,0,1-1.149-1.155l0-20.583H53.592V84.336A2.017,2.017,0,0,0,55.6,86.355H67.456a2.009,2.009,0,0,0,2-2.019V61.647H62.682L62.675,82.23a1.176,1.176,0,0,1-1.152,1.155M84.236,61.647H73.969a2.209,2.209,0,0,0-2.2,2.216V86.355h6.79V65.723a1.152,1.152,0,0,1,2.3-.018v20.65h6.763V65.7A1.132,1.132,0,0,1,88.77,64.59a1.146,1.146,0,0,1,1.151,1.133V86.355h6.79V63.863A2.21,2.21,0,0,0,94.5,61.647ZM44.514,65.766a1.162,1.162,0,0,0-1.149-1.176H42.213v12.5h1.152a1.146,1.146,0,0,0,1.149-1.16Zm4.552,14.38H42.213v6.209h-6.78V61.647H49.11a2.189,2.189,0,0,1,2.18,2.225V77.921a2.22,2.22,0,0,1-2.224,2.225m70.913.684a2.547,2.547,0,1,0,.043,0Zm3.054,2.6a3.023,3.023,0,1,1-3.06-3.039,3.026,3.026,0,0,1,3.06,3.039" transform="translate(-35.433 -35.493)"/>
  <path id="Path_58" data-name="Path 58" d="M606.638,283.532c.471,0,.719-.167.719-.5,0-.3-.24-.451-.7-.451h-.135v.952Zm1.736,1.953h-.809l-1.041-1.385v1.385h-.661v-3.5h.7c.945,0,1.446.357,1.446,1.039a1.018,1.018,0,0,1-.71.98l-.048.018Zm-13.35-8.1V266.013a1.153,1.153,0,0,0-2.3.018v11.36Zm0,9.263v-6.2h-2.3v6.2h-6.777V264.161a2.209,2.209,0,0,1,2.2-2.216H599.6a2.21,2.21,0,0,1,2.208,2.216v22.492Z" transform="translate(-522.362 -235.791)"/>
</svg>
